<svg xmlns="http://www.w3.org/2000/svg" width="48" height="48" viewBox="0 0 48 48"><defs><style>.cls-1{fill:#49aaee;}.cls-2{fill:#3398d6;}.cls-3{fill:none;stroke:#474c54;stroke-linecap:round;stroke-linejoin:round;stroke-width:2px;}.cls-4{fill:#fff;}</style></defs><title>18-File-Document-download</title><g id="_18-File-Document-download" data-name="18-File-Document-download"><path class="cls-1" d="M43,14V43a4,4,0,0,1-4,4H9s-4,0-4-4V5A4,4,0,0,1,9,1H30v9a4,4,0,0,0,4,4Z"/><path class="cls-2" d="M43,14H34a4,4,0,0,1-4-4V1Z"/><path class="cls-3" d="M30,7v3a4,4,0,0,0,4,4h9"/><path class="cls-3" d="M5,17V5A4,4,0,0,1,9,1H30L43,14V43a4,4,0,0,1-4,4H9s-4,0-4-4Z"/><g id="_Group_" data-name="&lt;Group&gt;"><path class="cls-4" d="M21,21H34a3,3,0,0,1,3,3V38a3,3,0,0,1-3,3H14a3,3,0,0,1-3-3V24a3,3,0,0,1,3-3Z"/><path class="cls-3" d="M21,21H14a3,3,0,0,0-3,3V38a3,3,0,0,0,3,3H34a3,3,0,0,0,3-3V24a3,3,0,0,0-3-3H28"/><path class="cls-3" d="M24,36V24a2.938,2.938,0,0,0-3-3"/></g><polyline class="cls-3" points="20 32 24 36 28 32"/></g></svg>